<svg width="42" height="42" viewBox="0 0 42 42" fill="none" xmlns="http://www.w3.org/2000/svg">
<path fill-rule="evenodd" clip-rule="evenodd" d="M21 42C32.598 42 42 32.598 42 21C42 9.40202 32.598 0 21 0C9.40202 0 0 9.40202 0 21C0 32.598 9.40202 42 21 42ZM31.3088 11.9224C31.699 11.2397 31.4741 10.3628 30.8065 9.96378C30.139 9.56478 29.2815 9.79479 28.8914 10.4775L18.8466 28.0559L13.0797 18.8288C12.6633 18.1625 11.7976 17.9677 11.1461 18.3936C10.4946 18.8194 10.3041 19.7048 10.7205 20.3711L17.7205 31.5711C17.9831 31.9913 18.4405 32.2414 18.928 32.2315C19.4155 32.2216 19.8628 31.9529 20.1088 31.5224L31.3088 11.9224Z" fill="white"/>
</svg>
