<svg width="42" height="42" viewBox="0 0 42 42" fill="none" xmlns="http://www.w3.org/2000/svg">
<path d="M24.1111 27.8451C24.0992 27.8451 24.0874 27.8451 24.0755 27.8451C23.6789 27.8253 23.3355 27.5278 23.223 27.0982L20.3634 15.6497L18.1551 22.6893C18.0366 23.0661 17.7347 23.3305 17.3854 23.3701C17.0302 23.4032 16.6868 23.2181 16.5032 22.881L15.3132 20.6865H9.13813C8.62897 20.6865 8.22046 20.2238 8.22046 19.6619C8.22046 19.0935 8.63489 18.6374 9.13813 18.6374H15.8342C16.1539 18.6374 16.4559 18.8225 16.6216 19.1331L17.0716 19.9594L19.6056 11.8952C19.7417 11.4721 20.0911 11.1945 20.5055 11.2077C20.9081 11.2209 21.2515 11.525 21.358 11.9547L24.2354 23.4759L25.5971 19.3116C25.7274 18.9084 26.0767 18.6374 26.4615 18.6374H33.3056C33.8148 18.6374 34.2233 19.1001 34.2233 19.6619C34.2233 20.2304 33.8088 20.6865 33.3056 20.6865H27.1009L24.9755 27.1775C24.8393 27.5807 24.4959 27.8451 24.1111 27.8451Z" fill="white"/>
<path fill-rule="evenodd" clip-rule="evenodd" d="M20.2688 41.6629C20.4701 41.8876 20.7365 42 20.997 42C21.2575 42 21.524 41.8876 21.7253 41.6629L38.4743 22.9698C43.1752 17.7214 43.1752 9.18791 38.4743 3.93957C36.195 1.40132 33.1696 0 29.9488 0C26.7281 0 23.7027 1.39471 21.4233 3.93957L20.997 4.41549L20.5708 3.93957C15.8699 -1.30878 8.22653 -1.30878 3.52566 3.93957C-1.17522 9.18791 -1.17522 17.7214 3.52566 22.9698L20.2688 41.6629ZM5.52079 5.9292C7.3443 3.90654 9.76579 2.78944 12.3471 2.78944C14.9285 2.78944 17.3559 3.90654 19.1794 5.9292L20.2924 7.16527C20.6654 7.5817 21.3285 7.5817 21.7015 7.16527L22.8146 5.9292C24.6381 3.90654 27.0596 2.78944 29.6409 2.78944C32.2163 2.78944 34.6437 3.90654 36.4672 5.9292C40.2327 10.1133 40.2327 16.915 36.4672 21.0992L20.997 38.2852L5.52079 21.0992C1.75535 16.915 1.75535 10.1133 5.52079 5.9292Z" fill="white"/>
</svg>
