<svg width="243" height="45" viewBox="0 0 243 45" fill="none" xmlns="http://www.w3.org/2000/svg">
<path d="M53.0493 13.5381C53.0493 9.92323 51.6042 6.52174 48.9825 3.96638C46.3559 1.4086 42.8687 0 39.1602 0C35.4516 0 31.9619 1.4086 29.3403 3.96638L26.5246 6.71085L23.709 3.96638C21.0874 1.4086 17.5977 0 13.8891 0C10.1806 0 6.69086 1.4086 4.06924 3.96638C1.44513 6.52174 0 9.92323 0 13.5381C0 17.1529 1.44513 20.5544 4.06675 23.1097L6.88238 25.8542L9.59355 28.4968L12.3022 25.8566L15.0134 23.214L17.7246 20.5714L21.1048 17.2765L23.816 19.9192L20.4332 23.2116L20.3064 23.3352L17.7221 25.8542L15.0109 28.4968L13.1852 30.2764L12.3022 31.1371L26.5246 45L29.2358 42.3574L17.7246 31.1371L20.4357 28.4944L26.5271 34.4319L29.2358 37.0721L30.5914 38.3934L31.947 39.7147L46.1694 25.8542L48.985 23.1097C51.6042 20.5544 53.0493 17.1529 53.0493 13.5381ZM15.0134 17.9287L12.1978 15.1867C11.7476 14.7479 11.4988 14.1636 11.4988 13.5381C11.4988 12.915 11.7476 12.3283 12.1978 11.8894C12.648 11.4482 13.2499 11.2082 13.8891 11.2082C14.5284 11.2082 15.1278 11.4506 15.5805 11.8919L18.3961 14.6363L15.0134 17.9287ZM21.1048 11.9913L18.2892 9.24923C17.1127 8.10247 15.5506 7.47212 13.8891 7.47212C12.2276 7.47212 10.6631 8.10247 9.48908 9.24923C8.31507 10.3936 7.66837 11.9161 7.66837 13.5381C7.66837 15.16 8.31507 16.6826 9.48908 17.8269L12.3047 20.5714L9.59355 23.214L6.77791 20.4695C4.87761 18.6173 3.83294 16.1565 3.83294 13.5381C3.83294 10.9197 4.87761 8.45887 6.77791 6.60659C8.67822 4.75432 11.2028 3.73606 13.8891 3.73606C16.5754 3.73606 19.1 4.75675 21.0003 6.60659L23.816 9.35106L26.5271 11.9937L29.2383 14.6363L31.9495 17.279L35.3297 20.5738L32.6186 23.2164L29.2383 19.9216L26.5271 17.279L23.816 14.6363L21.1048 11.9913ZM34.6557 14.6339L37.4713 11.8894C37.924 11.4482 38.5234 11.2058 39.1627 11.2058C39.8019 11.2058 40.4013 11.4482 40.854 11.8894C41.3042 12.3283 41.553 12.9126 41.553 13.5381C41.553 14.1611 41.3042 14.7479 40.854 15.1867L38.0384 17.9311L34.6557 14.6339ZM26.5246 29.149L23.1444 25.8542L26.5246 22.5594L29.9049 25.8542L26.5246 29.149ZM43.4558 23.2116L40.7446 25.8542L31.9445 34.4319L29.2333 31.7917L38.0334 23.214L40.7446 20.5714L43.5602 17.8269C44.7342 16.6826 45.3809 15.16 45.3809 13.5381C45.3809 11.9161 44.7342 10.3936 43.5602 9.24923C42.3837 8.10247 40.8217 7.47212 39.1602 7.47212C37.4986 7.47212 35.9341 8.10247 34.7601 9.24923L31.9445 11.9937L29.2333 9.35106L32.049 6.60659C33.9493 4.75432 36.4739 3.73606 39.1602 3.73606C41.8465 3.73606 44.3711 4.75675 46.2714 6.60659C48.1717 8.45887 49.2164 10.9197 49.2164 13.5381C49.2164 16.1565 48.1692 18.6173 46.2714 20.4695L43.4558 23.2116Z" fill="#2367B8"/>
<path d="M229.507 11.5831H226.313H224.966L219.191 27.3174L213.373 11.5831H208.812L217.081 31.9829L213.307 41.2076H217.719L227.906 15.6049H243V11.5831H229.507Z" fill="#2367B8"/>
<path d="M117.248 26.5313L110.108 4.69962H106.697L99.6006 26.5313L96.4446 15.6048L95.2826 11.5831H90.8664H75.2959V15.6048H92.0654L97.043 32.293H101.477L108.446 11.4174L115.35 32.293H119.762L128.501 3H124.025L117.248 26.5313Z" fill="#2367B8"/>
<path d="M139.043 11.2304C135.228 11.2304 132.585 12.7856 130.604 15.4391L133.716 17.6784C134.675 16.2061 136.444 14.7338 139.194 14.7338C142.54 14.7338 143.947 16.9114 143.947 20.2065H138.746C133.312 20.2065 129.645 21.9274 129.645 26.2402C129.645 30.3448 132.928 32.7073 137.104 32.7073C139.895 32.7073 142.496 31.6493 144.178 28.7896L144.37 32.293H147.823V19.6478C147.826 14.6105 144.672 11.2304 139.043 11.2304ZM137.637 29.308C135.527 29.308 133.906 28.3138 133.906 26.3634C133.906 24.2899 135.719 23.1703 139.065 23.1703H143.944C143.883 26.1574 141.345 29.308 137.637 29.308Z" fill="#2367B8"/>
<path d="M158.054 27.8782V3H153.919V28.1481C153.919 31.1946 154.985 32.7094 157.905 32.7094C158.949 32.7094 160.314 32.5033 161.188 32.2951V28.9788C160.677 29.0829 159.93 29.1445 159.482 29.1445C158.309 29.1423 158.054 28.2097 158.054 27.8782Z" fill="#2367B8"/>
<path d="M183.924 11.5831H178.639L169.837 21.5556V3H165.702V32.293H169.837V26.219L173.779 21.9487L180.174 32.293H185.075L176.485 19.378L183.924 11.5831Z" fill="#2367B8"/>
<path d="M207.002 11.5831H201.716L192.914 21.5556V3H188.78V32.293H192.914V26.219L196.859 21.9487L203.252 32.293H208.153L199.565 19.378L207.002 11.5831Z" fill="#2367B8"/>
</svg>
