<svg width="31" height="28" viewBox="0 0 31 28" fill="none" xmlns="http://www.w3.org/2000/svg">
<path d="M30.82 8.52676C30.82 6.36749 29.9831 4.33567 28.465 2.80927C26.944 1.28142 24.9246 0.440018 22.777 0.440018C20.6294 0.440018 18.6086 1.28142 17.0905 2.80927L15.46 4.44863L13.8295 2.80927C12.3113 1.28142 10.2905 0.440018 8.14293 0.440018C5.99536 0.440018 3.97453 1.28142 2.45639 2.80927C0.93681 4.33567 0.0999603 6.36749 0.0999603 8.52676C0.0999603 10.686 0.93681 12.7178 2.45495 14.2442L4.08544 15.8836L5.65543 17.4621L7.22398 15.8851L8.79398 14.3065L10.364 12.728L12.3214 10.7599L13.8914 12.3384L11.9325 14.3051L11.8591 14.3789L10.3625 15.8836L8.79254 17.4621L7.73531 18.5251L7.22398 19.0392L15.46 27.32L17.03 25.7415L10.364 19.0392L11.934 17.4607L15.4614 21.0073L17.03 22.5844L17.815 23.3737L18.5999 24.163L26.8359 15.8836L28.4664 14.2442C29.9831 12.7178 30.82 10.686 30.82 8.52676ZM8.79398 11.1494L7.16349 9.51153C6.90278 9.24941 6.75875 8.90039 6.75875 8.52676C6.75875 8.15457 6.90278 7.80411 7.16349 7.54198C7.42419 7.27841 7.77276 7.13504 8.14293 7.13504C8.51311 7.13504 8.86023 7.27986 9.12238 7.54343L10.7529 9.18279L8.79398 11.1494ZM12.3214 7.60281L10.6909 5.96489C10.0096 5.2799 9.10509 4.90336 8.14293 4.90336C7.18077 4.90336 6.27479 5.2799 5.59494 5.96489C4.91509 6.64844 4.54059 7.55791 4.54059 8.52676C4.54059 9.4956 4.91509 10.4051 5.59494 11.0886L7.22542 12.728L5.65543 14.3065L4.02494 12.6672C2.92451 11.5607 2.31956 10.0908 2.31956 8.52676C2.31956 6.9627 2.92451 5.49278 4.02494 4.38636C5.12538 3.27993 6.58734 2.67169 8.14293 2.67169C9.69852 2.67169 11.1605 3.28138 12.2609 4.38636L13.8914 6.02572L15.4614 7.60425L17.0314 9.18279L18.6014 10.7613L20.5588 12.7294L18.9888 14.308L17.0314 12.3399L15.4614 10.7613L13.8914 9.18279L12.3214 7.60281ZM20.1685 9.18134L21.799 7.54198C22.0611 7.27841 22.4083 7.13359 22.7784 7.13359C23.1486 7.13359 23.4957 7.27841 23.7579 7.54198C24.0186 7.80411 24.1626 8.15312 24.1626 8.52676C24.1626 8.89894 24.0186 9.24941 23.7579 9.51153L22.1274 11.1509L20.1685 9.18134ZM15.46 17.8517L13.5025 15.8836L15.46 13.9155L17.4174 15.8836L15.46 17.8517ZM25.2645 14.3051L23.6945 15.8836L18.5985 21.0073L17.0285 19.4302L22.1245 14.3065L23.6945 12.728L25.325 11.0886C26.0048 10.4051 26.3793 9.4956 26.3793 8.52676C26.3793 7.55791 26.0048 6.64844 25.325 5.96489C24.6437 5.2799 23.7392 4.90336 22.777 4.90336C21.8148 4.90336 20.9088 5.2799 20.229 5.96489L18.5985 7.60425L17.0285 6.02572L18.659 4.38636C19.7594 3.27993 21.2214 2.67169 22.777 2.67169C24.3326 2.67169 25.7945 3.28138 26.895 4.38636C27.9954 5.49278 28.6004 6.9627 28.6004 8.52676C28.6004 10.0908 27.994 11.5607 26.895 12.6672L25.2645 14.3051Z" fill="#2367B8"/>
</svg>
