<svg width="52" height="35" viewBox="0 0 52 35" fill="none" xmlns="http://www.w3.org/2000/svg">
<path d="M39.5393 34.3589H11.8489C5.31603 34.3589 0 29.0201 0 22.4592C0 16.9119 3.78515 12.1532 9.10117 10.8917C11.148 7.02271 15.1798 4.55603 19.565 4.55603C20.793 4.55603 21.9931 4.74188 23.1482 5.11357C25.352 1.93167 28.9802 0 32.8775 0C39.3711 0 44.6591 5.27125 44.7264 11.7702C48.8031 13.7582 51.3826 17.8524 51.3826 22.4592C51.3882 29.0201 46.0722 34.3589 39.5393 34.3589ZM19.565 7.23671C15.9873 7.23671 12.7125 9.35422 11.2209 12.6262L10.9292 13.2682L10.2395 13.3921C5.84875 14.1693 2.66362 17.9876 2.66362 22.4592C2.66362 27.5446 6.78522 31.6782 11.8433 31.6782H39.5337C44.5974 31.6782 48.7134 27.5446 48.7134 22.4592C48.7134 18.6409 46.4199 15.2675 42.8646 13.8765L41.9506 13.516L42.0291 12.4348C42.0403 12.2545 42.0571 12.08 42.0571 11.8997C42.0571 6.81434 37.9412 2.68068 32.8775 2.68068C29.5578 2.68068 26.4904 4.49408 24.8642 7.40566L24.2754 8.45879L23.1707 7.98573C22.0323 7.48451 20.8155 7.23671 19.565 7.23671Z" fill="white"/>
<path d="M24.3227 25.004C24.3816 25.1898 24.4237 25.3334 24.4363 25.439C24.4531 25.5446 24.4321 25.6249 24.3732 25.6798C24.3185 25.7347 24.2176 25.7685 24.0746 25.7811C23.9316 25.7938 23.7339 25.8023 23.4858 25.8023C23.225 25.8023 23.0232 25.798 22.8802 25.7896C22.7372 25.7811 22.6236 25.7685 22.5479 25.7431C22.4722 25.722 22.4175 25.6882 22.3881 25.646C22.3587 25.6038 22.3334 25.5531 22.3124 25.4855L21.6479 23.4919H17.9385L17.3118 25.4306C17.2908 25.5024 17.2656 25.5615 17.2319 25.6122C17.1983 25.6629 17.1436 25.7009 17.0721 25.7262C16.9964 25.7558 16.8955 25.7727 16.7567 25.7854C16.6221 25.7938 16.4455 25.8023 16.2268 25.8023C15.9912 25.8023 15.8104 25.7938 15.6758 25.7811C15.5412 25.7643 15.4529 25.7305 15.4024 25.6713C15.352 25.6122 15.3351 25.5277 15.3478 25.4221C15.3646 25.3165 15.4024 25.1729 15.4613 24.9913L18.5104 16.189C18.5399 16.1003 18.5777 16.0327 18.6156 15.9778C18.6576 15.9229 18.7207 15.8849 18.8091 15.8553C18.8974 15.8258 19.0235 15.8089 19.1791 15.8004C19.3348 15.792 19.5451 15.7878 19.8058 15.7878C20.1044 15.7878 20.3441 15.792 20.525 15.8004C20.7016 15.8089 20.8404 15.8258 20.9413 15.8553C21.0423 15.8849 21.1138 15.9271 21.1558 15.982C21.1979 16.037 21.2357 16.113 21.2652 16.2101L24.3227 25.004ZM19.789 17.7265H19.7806L18.3843 21.946H21.1853L19.789 17.7265Z" fill="white"/>
<path d="M32.4692 18.8457C32.4692 19.4032 32.3809 19.8974 32.2084 20.324C32.036 20.7548 31.7837 21.1138 31.4514 21.4095C31.1192 21.7051 30.7154 21.929 30.2317 22.081C29.7523 22.2331 29.1845 22.3091 28.5326 22.3091H27.7083V25.4769C27.7083 25.5276 27.6915 25.5741 27.6579 25.6163C27.6242 25.6586 27.5695 25.6924 27.4938 25.7177C27.4181 25.743 27.3172 25.7642 27.1868 25.7811C27.0606 25.7979 26.8966 25.8022 26.699 25.8022C26.5055 25.8022 26.3457 25.7937 26.2153 25.7811C26.0849 25.7684 25.984 25.7473 25.9041 25.7177C25.8284 25.6924 25.7737 25.6586 25.7443 25.6163C25.7148 25.5741 25.698 25.5276 25.698 25.4769V16.5522C25.698 16.3114 25.7611 16.1298 25.883 16.0115C26.0092 15.8933 26.1732 15.8299 26.3751 15.8299H28.7051C28.9406 15.8299 29.1635 15.8383 29.3738 15.8552C29.5841 15.8721 29.8364 15.9101 30.135 15.9693C30.4294 16.0284 30.728 16.1382 31.0308 16.2945C31.3336 16.455 31.5902 16.6535 31.8047 16.8985C32.0192 17.1393 32.1832 17.4265 32.2925 17.7517C32.4145 18.0769 32.4692 18.4402 32.4692 18.8457ZM30.3705 18.9893C30.3705 18.6429 30.3074 18.3557 30.1855 18.1318C30.0635 17.908 29.9121 17.739 29.7355 17.6334C29.5588 17.5278 29.3696 17.4603 29.1761 17.4307C28.9785 17.4011 28.7766 17.3885 28.5705 17.3885H27.7167V20.7548H28.6168C28.9364 20.7548 29.2056 20.7126 29.4243 20.6239C29.6387 20.5352 29.8196 20.4169 29.9542 20.2606C30.093 20.1043 30.1939 19.9185 30.2654 19.6989C30.3369 19.4834 30.3705 19.2469 30.3705 18.9893Z" fill="white"/>
<path d="M36.0441 25.4812C36.0441 25.5319 36.0273 25.5783 35.9937 25.6206C35.96 25.6628 35.9053 25.6966 35.8296 25.7219C35.7539 25.7473 35.653 25.7684 35.5226 25.7853C35.3964 25.8022 35.2324 25.8064 35.0348 25.8064C34.8413 25.8064 34.6815 25.798 34.5511 25.7853C34.4207 25.7726 34.3198 25.7515 34.2399 25.7219C34.1642 25.6966 34.1095 25.6628 34.0759 25.6206C34.0422 25.5783 34.0254 25.5319 34.0254 25.4812V16.1087C34.0254 16.058 34.0422 16.0115 34.0759 15.9693C34.1095 15.9271 34.1642 15.8933 34.2441 15.8679C34.324 15.8426 34.4249 15.8215 34.5553 15.8046C34.6815 15.7877 34.8413 15.7834 35.0348 15.7834C35.2324 15.7834 35.3964 15.7919 35.5226 15.8046C35.6488 15.8215 35.7497 15.8426 35.8296 15.8679C35.9053 15.8933 35.96 15.9271 35.9937 15.9693C36.0273 16.0115 36.0441 16.058 36.0441 16.1087V25.4812Z" fill="white"/>
</svg>
