<svg width="40" height="36" viewBox="0 0 40 36" fill="none" xmlns="http://www.w3.org/2000/svg">
<path d="M22.837 23.7239C22.8258 23.7239 22.8146 23.7239 22.8033 23.7239C22.4276 23.707 22.1024 23.4535 21.9958 23.0875L19.2874 13.3334L17.1957 19.3311C17.0836 19.6521 16.7976 19.8774 16.4667 19.9112C16.1303 19.9394 15.805 19.7817 15.6312 19.4945L14.5041 17.6247H8.65531C8.17305 17.6247 7.78613 17.2305 7.78613 16.7518C7.78613 16.2675 8.17866 15.8789 8.65531 15.8789H14.9975C15.3003 15.8789 15.5863 16.0366 15.7433 16.3013L16.1695 17.0053L18.5696 10.1346C18.6986 9.77418 19.0294 9.53765 19.4219 9.54891C19.8033 9.56017 20.1285 9.81923 20.2294 10.1853L22.9547 20.0013L24.2445 16.4534C24.3679 16.1098 24.6987 15.8789 25.0632 15.8789H31.5456C32.0279 15.8789 32.4148 16.2731 32.4148 16.7518C32.4148 17.2362 32.0223 17.6247 31.5456 17.6247H25.6688L23.6557 23.1551C23.5267 23.4986 23.2015 23.7239 22.837 23.7239Z" fill="white"/>
<path fill-rule="evenodd" clip-rule="evenodd" d="M19.1977 35.4965C19.3883 35.688 19.6407 35.7837 19.8874 35.7837C20.1342 35.7837 20.3865 35.688 20.5772 35.4965L36.4411 19.5701C40.8936 15.0985 40.8936 7.82804 36.4411 3.35648C34.2822 1.19392 31.4167 0 28.3661 0C25.3156 0 22.4501 1.18828 20.2912 3.35648L19.8874 3.76196L19.4837 3.35648C15.0312 -1.11507 7.79179 -1.11507 3.33934 3.35648C-1.11311 7.82804 -1.11311 15.0985 3.33934 19.5701L19.1977 35.4965ZM5.22903 5.05164C6.95618 3.32834 9.2497 2.37659 11.6946 2.37659C14.1395 2.37659 16.4387 3.32834 18.1658 5.05164L19.22 6.10476C19.5733 6.45956 20.2014 6.45956 20.5547 6.10476L21.6089 5.05164C23.336 3.32834 25.6296 2.37659 28.0745 2.37659C30.5138 2.37659 32.8129 3.32834 34.5401 5.05164C38.1065 8.61649 38.1065 14.4115 34.5401 17.9763L19.8874 32.6187L5.22903 17.9763C1.66259 14.4115 1.66259 8.61649 5.22903 5.05164Z" fill="white"/>
</svg>
