<svg width="52" height="35" viewBox="0 0 52 35" fill="none" xmlns="http://www.w3.org/2000/svg">
<path d="M43.981 13.0453C43.9978 12.8031 44.0203 12.561 44.0203 12.3132C44.0203 6.47877 39.3099 1.75378 33.506 1.75378C29.5582 1.75378 26.1264 3.93888 24.3263 7.16583C23.0534 6.61956 21.6571 6.31545 20.1879 6.31545C15.9373 6.31545 12.2924 8.8497 10.6325 12.4878C5.70341 13.3607 1.95752 17.6745 1.95752 22.8782C1.95752 28.7126 6.66792 33.4376 12.4718 33.4376H40.1622C45.9717 33.4376 50.6765 28.707 50.6765 22.8782C50.6709 18.401 47.8951 14.5828 43.981 13.0453Z" fill="#D3E1F1"/>
<path d="M40.1565 34.778H12.4661C5.93321 34.778 0.617188 29.4391 0.617188 22.8782C0.617188 17.331 4.40234 12.5722 9.71836 11.3107C11.7651 7.44177 15.797 4.9751 20.1822 4.9751C21.4102 4.9751 22.6103 5.16094 23.7654 5.53263C25.9692 2.35073 29.5974 0.419067 33.4947 0.419067C39.9883 0.419067 45.2763 5.69032 45.3436 12.1893C49.4203 14.1773 51.9998 18.2715 51.9998 22.8782C52.0054 29.4391 46.6894 34.778 40.1565 34.778ZM20.1822 7.65578C16.6045 7.65578 13.3297 9.77329 11.838 13.0453L11.5464 13.6873L10.8567 13.8112C6.46594 14.5884 3.28081 18.4067 3.28081 22.8782C3.28081 27.9636 7.4024 32.0973 12.4605 32.0973H40.1509C45.2146 32.0973 49.3306 27.9636 49.3306 22.8782C49.3306 19.0599 47.0371 15.6866 43.4818 14.2955L42.5678 13.9351L42.6463 12.8538C42.6575 12.6736 42.6743 12.499 42.6743 12.3188C42.6743 7.2334 38.5583 3.09975 33.4947 3.09975C30.1749 3.09975 27.1076 4.91315 25.4814 7.82473L24.8926 8.87785L23.7879 8.40479C22.6495 7.90357 21.4327 7.65578 20.1822 7.65578Z" fill="#083251"/>
<path d="M24.9716 25.423C25.0305 25.6089 25.0726 25.7525 25.0852 25.8581C25.102 25.9637 25.081 26.0439 25.0221 26.0988C24.9674 26.1537 24.8665 26.1875 24.7235 26.2002C24.5805 26.2129 24.3829 26.2213 24.1347 26.2213C23.874 26.2213 23.6721 26.2171 23.5291 26.2086C23.3861 26.2002 23.2725 26.1875 23.1968 26.1622C23.1211 26.1411 23.0665 26.1073 23.037 26.065C23.0076 26.0228 22.9824 25.9721 22.9613 25.9045L22.2968 23.9109H18.5874L17.9607 25.8496C17.9397 25.9214 17.9145 25.9806 17.8808 26.0312C17.8472 26.0819 17.7925 26.1199 17.721 26.1453C17.6453 26.1748 17.5444 26.1917 17.4056 26.2044C17.271 26.2129 17.0944 26.2213 16.8757 26.2213C16.6402 26.2213 16.4593 26.2129 16.3247 26.2002C16.1902 26.1833 16.1018 26.1495 16.0514 26.0904C16.0009 26.0312 15.9841 25.9468 15.9967 25.8412C16.0135 25.7356 16.0514 25.592 16.1102 25.4103L19.1594 16.608C19.1888 16.5193 19.2267 16.4518 19.2645 16.3969C19.3066 16.3419 19.3697 16.3039 19.458 16.2744C19.5463 16.2448 19.6725 16.2279 19.8281 16.2195C19.9837 16.211 20.194 16.2068 20.4547 16.2068C20.7533 16.2068 20.9931 16.211 21.1739 16.2195C21.3505 16.2279 21.4893 16.2448 21.5903 16.2744C21.6912 16.3039 21.7627 16.3462 21.8048 16.4011C21.8468 16.456 21.8847 16.532 21.9141 16.6292L24.9716 25.423ZM20.4379 18.1455H20.4295L19.0332 22.365H21.8342L20.4379 18.1455Z" fill="#083251"/>
<path d="M33.362 19.2647C33.362 19.8222 33.2737 20.3164 33.1012 20.743C32.9288 21.1738 32.6765 21.5328 32.3442 21.8285C32.012 22.1241 31.6082 22.348 31.1246 22.5001C30.6451 22.6521 30.0774 22.7281 29.4255 22.7281H28.6011V25.896C28.6011 25.9466 28.5843 25.9931 28.5507 26.0353C28.517 26.0776 28.4624 26.1114 28.3867 26.1367C28.311 26.162 28.21 26.1832 28.0796 26.2001C27.9535 26.217 27.7894 26.2212 27.5918 26.2212C27.3983 26.2212 27.2385 26.2127 27.1081 26.2001C26.9777 26.1874 26.8768 26.1663 26.7969 26.1367C26.7212 26.1114 26.6665 26.0776 26.6371 26.0353C26.6076 25.9931 26.5908 25.9466 26.5908 25.896V16.9712C26.5908 16.7304 26.6539 16.5488 26.7759 16.4305C26.902 16.3123 27.0661 16.2489 27.2679 16.2489H29.5979C29.8334 16.2489 30.0563 16.2573 30.2666 16.2742C30.4769 16.2911 30.7292 16.3292 31.0278 16.3883C31.3222 16.4474 31.6208 16.5572 31.9237 16.7135C32.2265 16.874 32.483 17.0725 32.6975 17.3175C32.912 17.5583 33.076 17.8455 33.1854 18.1707C33.3073 18.4959 33.362 18.8592 33.362 19.2647ZM31.2634 19.4083C31.2634 19.0619 31.2003 18.7747 31.0783 18.5508C30.9563 18.327 30.8049 18.158 30.6283 18.0524C30.4517 17.9468 30.2624 17.8793 30.0689 17.8497C29.8713 17.8201 29.6694 17.8075 29.4633 17.8075H28.6096V21.1738H29.5096C29.8292 21.1738 30.0984 21.1316 30.3171 21.0429C30.5316 20.9542 30.7124 20.8359 30.847 20.6796C30.9858 20.5233 31.0867 20.3375 31.1582 20.1179C31.2297 19.9024 31.2634 19.6659 31.2634 19.4083Z" fill="#083251"/>
<path d="M36.8808 25.9003C36.8808 25.9509 36.864 25.9974 36.8303 26.0396C36.7967 26.0819 36.742 26.1157 36.6663 26.141C36.5906 26.1663 36.4897 26.1875 36.3593 26.2044C36.2331 26.2213 36.0691 26.2255 35.8714 26.2255C35.678 26.2255 35.5181 26.217 35.3878 26.2044C35.2574 26.1917 35.1565 26.1706 35.0765 26.141C35.0008 26.1157 34.9462 26.0819 34.9125 26.0396C34.8789 25.9974 34.8621 25.9509 34.8621 25.9003V16.5277C34.8621 16.4771 34.8789 16.4306 34.9125 16.3884C34.9462 16.3461 35.0008 16.3123 35.0808 16.287C35.1607 16.2616 35.2616 16.2405 35.392 16.2236C35.5181 16.2067 35.678 16.2025 35.8714 16.2025C36.0691 16.2025 36.2331 16.211 36.3593 16.2236C36.4855 16.2405 36.5864 16.2616 36.6663 16.287C36.742 16.3123 36.7967 16.3461 36.8303 16.3884C36.864 16.4306 36.8808 16.4771 36.8808 16.5277V25.9003Z" fill="#083251"/>
</svg>
