<svg width="48" height="33" viewBox="0 0 48 33" fill="none" xmlns="http://www.w3.org/2000/svg">
<path d="M2.55696 31.4574L45.2625 31.5986C45.2625 31.5986 47.6557 21.6647 46.0358 17.6528C44.4158 13.6351 37.6651 1.37878 23.5203 1.37878C12.0508 1.37878 7.33777 8.14265 4.66796 11.8721C2.37069 15.0817 -0.259599 25.7502 2.55696 31.4574Z" fill="#D3E1F1"/>
<path d="M40.9727 7.0351C38.7714 4.83134 36.2032 3.09658 33.3471 1.88733C30.3895 0.632877 27.2455 0 24.0056 0C20.7658 0 17.6162 0.632877 14.6585 1.88168C11.8024 3.09092 9.23424 4.82569 7.03293 7.02945C4.83161 9.23322 3.09878 11.8043 1.89087 14.6635C0.632173 17.6301 0 20.7776 0 24.0211C0 26.7051 0.440263 29.3384 1.30386 31.8586L1.69897 33H46.301L46.6961 31.8586C47.5654 29.344 48 26.7051 48 24.0211C48 20.7776 47.3678 17.6301 46.1148 14.6692C44.9069 11.8099 43.174 9.23887 40.9727 7.0351ZM44.4722 30.0221H3.52775C3.00282 28.1517 2.73754 26.2192 2.73754 24.2584C2.73754 23.8063 2.75447 23.3599 2.78269 22.9192H6.58702V19.4214H3.29069C4.14299 15.7598 5.94356 12.4598 8.4158 9.79264L10.4478 11.8269L12.92 9.35188L11.0009 7.43065C14.1674 4.9726 18.0395 3.39041 22.2559 3.04572V6.82038H25.7498V3.04572C29.9661 3.39041 33.8382 4.9726 37.0047 7.43065L35.0856 9.35188L37.5579 11.8269L39.5898 9.79264C42.0621 12.4598 43.8627 15.7598 44.715 19.4214H41.4243V22.9192H45.2286C45.2568 23.3656 45.2738 23.812 45.2738 24.2584C45.2625 26.2192 44.9972 28.1517 44.4722 30.0221Z" fill="#083251"/>
<path d="M22.9218 17.811C21.5785 18.263 20.6133 19.5288 20.6133 21.0262C20.6133 22.9022 22.1316 24.4166 23.9999 24.4166C25.8682 24.4166 27.3866 22.8966 27.3866 21.0262C27.3866 20.6702 27.3301 20.3255 27.2285 19.9978L31.4505 6.32312L22.9218 17.811Z" fill="#083251"/>
</svg>
