<svg width="36" height="44" viewBox="0 0 36 44" fill="none" xmlns="http://www.w3.org/2000/svg">
<path d="M35.3181 5.94808C34.5804 3.10181 27.0418 0.865967 17.9645 0.865967C8.88016 0.865967 1.34854 3.10181 0.61084 5.94808V37.7964C0.61084 37.7964 4.48906 43.2973 17.8872 43.2973C31.2853 43.2973 35.3251 37.7964 35.3251 37.7964V5.94808H35.3181Z" fill="#D3E1F1" stroke="#010101" stroke-miterlimit="10"/>
<path d="M18 0C8.57845 0 0.765808 2.32102 0 5.27375V38.3004C0 38.3004 4.01873 44 17.9157 44C31.8126 44 36 38.3004 36 38.3004V5.27375C35.2342 2.32102 27.4215 0 18 0ZM17.9016 3.00952C25.8899 3.00952 32.3606 4.81949 32.3606 7.05533C32.3606 9.29118 25.8899 11.1011 17.9016 11.1011C9.91335 11.1011 3.44262 9.29118 3.44262 7.05533C3.44262 4.82658 9.91335 3.00952 17.9016 3.00952ZM3.21077 17.2125V10.8669C3.21077 10.8669 6.70257 13.8693 17.8384 13.8693C28.9742 13.8693 32.5995 10.8669 32.5995 10.8669V17.2125C32.5995 17.2125 29.178 20.7756 17.8384 20.7756C6.49883 20.7756 3.21077 17.2125 3.21077 17.2125ZM3.21077 26.8017V20.4562C3.21077 20.4562 6.70257 23.4586 17.8384 23.4586C28.9742 23.4586 32.5995 20.4562 32.5995 20.4562V26.8017C32.5995 26.8017 29.178 30.3649 17.8384 30.3649C6.49883 30.3649 3.21077 26.8017 3.21077 26.8017ZM3.21077 36.3839V30.0384C3.21077 30.0384 6.70257 33.0408 17.8384 33.0408C28.9742 33.0408 32.5995 30.0384 32.5995 30.0384V36.3839C32.5995 36.3839 29.178 39.9471 17.8384 39.9471C6.49883 39.9471 3.21077 36.3839 3.21077 36.3839Z" fill="#083251"/>
</svg>
