<svg width="41" height="36" viewBox="0 0 41 36" fill="none" xmlns="http://www.w3.org/2000/svg">
<path d="M20.5783 35.9999C20.3316 35.9999 20.0793 35.9042 19.8886 35.7127L4.03025 19.7863C-0.422194 15.3147 -0.422194 8.04422 4.03025 3.57267C8.4827 -0.898887 15.7221 -0.898887 20.1746 3.57267L20.5783 3.97815L20.9821 3.57267C23.141 1.40447 26.0065 0.216187 29.0571 0.216187C32.1076 0.216187 34.9731 1.4101 37.132 3.57267C41.5845 8.04422 41.5845 15.3147 37.132 19.7863L21.2681 35.7127C21.0774 35.9042 20.8251 35.9999 20.5783 35.9999Z" fill="#083251"/>
<path d="M12.3855 2.59277C9.94062 2.59277 7.6471 3.54453 5.91995 5.26782C2.35351 8.83268 2.35351 14.6277 5.91995 18.1925L20.5783 32.8349L35.231 18.1925C38.7974 14.6277 38.7974 8.83268 35.231 5.26782C33.5038 3.54453 31.2047 2.59277 28.7654 2.59277C26.3205 2.59277 24.027 3.54453 22.2998 5.26782L21.2456 6.32095C20.8923 6.67574 20.2642 6.67574 19.911 6.32095L18.8567 5.26782C17.1296 3.54453 14.8305 2.59277 12.3855 2.59277Z" fill="#D3E1F1"/>
<path d="M23.5279 23.94C23.5167 23.94 23.5055 23.94 23.4943 23.94C23.1185 23.9231 22.7933 23.6697 22.6868 23.3037L19.9783 13.5496L17.8866 19.5473C17.7745 19.8683 17.4885 20.0936 17.1576 20.1274C16.8212 20.1555 16.4959 19.9979 16.3221 19.7106L15.195 17.8409H9.34622C8.86397 17.8409 8.47705 17.4467 8.47705 16.968C8.47705 16.4837 8.86958 16.0951 9.34622 16.0951H15.6884C15.9913 16.0951 16.2772 16.2528 16.4343 16.5175L16.8604 17.2214L19.2605 10.3508C19.3895 9.99036 19.7203 9.75383 20.1129 9.76509C20.4942 9.77636 20.8194 10.0354 20.9203 10.4015L23.6457 20.2175L24.9354 16.6695C25.0588 16.326 25.3896 16.0951 25.7541 16.0951H32.2365C32.7188 16.0951 33.1057 16.4893 33.1057 16.968C33.1057 17.4523 32.7132 17.8409 32.2365 17.8409H26.3597L24.3466 23.3712C24.2176 23.7148 23.8924 23.94 23.5279 23.94Z" fill="#083251"/>
</svg>
